<svg width="39" height="36" viewBox="0 0 39 36" fill="none" xmlns="http://www.w3.org/2000/svg">
<g id="CheckCircle">
<path id="Vector" d="M19.3107 3.375C16.2076 3.375 13.1742 4.23274 10.594 5.83976C8.01389 7.44677 6.00291 9.73088 4.8154 12.4033C3.62789 15.0756 3.31718 18.0162 3.92257 20.8532C4.52796 23.6902 6.02225 26.2961 8.21649 28.3414C10.4107 30.3868 13.2063 31.7797 16.2498 32.344C19.2933 32.9083 22.448 32.6187 25.3149 31.5117C28.1818 30.4048 30.6322 28.5303 32.3562 26.1252C34.0802 23.7201 35.0004 20.8926 35.0004 18C34.9924 14.1235 33.3368 10.4079 30.3962 7.66677C27.4555 4.92566 23.4694 3.38243 19.3107 3.375ZM26.7784 15.4406L17.9379 23.3156C17.7093 23.516 17.4068 23.6268 17.0931 23.625C16.9397 23.627 16.7874 23.6008 16.645 23.5477C16.5026 23.4946 16.3729 23.4157 16.2633 23.3156L11.8431 19.3781C11.7205 19.2784 11.6208 19.1566 11.5499 19.0201C11.4791 18.8835 11.4386 18.7351 11.431 18.5836C11.4233 18.4321 11.4485 18.2807 11.5052 18.1385C11.5619 17.9964 11.6488 17.8664 11.7608 17.7563C11.8727 17.6463 12.0074 17.5584 12.1567 17.4981C12.306 17.4378 12.4668 17.4063 12.6295 17.4054C12.7922 17.4045 12.9534 17.4343 13.1034 17.493C13.2535 17.5517 13.3892 17.638 13.5026 17.7469L17.0931 20.9391L25.1189 13.8094C25.3536 13.6185 25.6583 13.5196 25.9694 13.5333C26.2805 13.5471 26.5738 13.6723 26.7881 13.883C27.0024 14.0936 27.121 14.3733 27.1192 14.6636C27.1174 14.9539 26.9953 15.2323 26.7784 15.4406Z" fill="white"/>
</g>
</svg>
