<svg width="15" height="13" viewBox="0 0 15 13" fill="none" xmlns="http://www.w3.org/2000/svg">
<path d="M1.40625 0C1.1111 0 0.823437 0.10731 0.584001 0.306731C0.344565 0.506151 0.165498 0.787574 0.0721641 1.11113C-0.0211696 1.43469 -0.024038 1.78398 0.0639654 2.10952C0.151969 2.43507 0.326382 2.72036 0.5625 2.925L6.9375 8.45C7.09997 8.59011 7.29727 8.66581 7.5 8.66581C7.70273 8.66581 7.90003 8.59011 8.0625 8.45L14.4375 2.925C14.6736 2.72036 14.848 2.43507 14.936 2.10952C15.024 1.78398 15.0212 1.43469 14.9278 1.11113C14.8345 0.787574 14.6554 0.506151 14.416 0.306731C14.1766 0.10731 13.8889 0 13.5938 0H1.40625ZM8.83732e-09 3.79167V10.8333C8.83732e-09 11.408 0.197544 11.9591 0.549175 12.3654C0.900806 12.7717 1.37772 13 1.875 13H13.125C13.6223 13 14.0992 12.7717 14.4508 12.3654C14.8025 11.9591 15 11.408 15 10.8333V3.79167L8.625 9.31667C8.30044 9.59795 7.90569 9.75 7.5 9.75C7.09431 9.75 6.69956 9.59795 6.375 9.31667L8.83732e-09 3.79167Z" fill="#0FC9DF"/>
</svg>
