<svg width="15" height="16" viewBox="0 0 15 16" fill="none" xmlns="http://www.w3.org/2000/svg">
<path d="M4.83326 0.770625C4.72466 0.489269 4.52317 0.260105 4.2669 0.126461C4.01062 -0.00718318 3.71732 -0.0360452 3.44245 0.0453318L0.864154 0.795512C0.616245 0.868047 0.397478 1.0253 0.24139 1.24316C0.085301 1.46102 0.000504923 1.72747 0 2.00167C0.000220985 5.71418 1.38299 9.27458 3.84417 11.8997C6.30534 14.5249 9.64335 15.9998 13.124 16C13.381 15.9995 13.6309 15.909 13.8351 15.7425C14.0394 15.576 14.1868 15.3427 14.2548 15.0783L14.9581 12.3282C15.0337 12.0354 15.0063 11.7232 14.8811 11.4504C14.7558 11.1777 14.5414 10.9632 14.2781 10.8474L11.4665 9.59769C11.234 9.49366 10.9762 9.47276 10.7316 9.53814C10.487 9.60351 10.2689 9.75164 10.1099 9.96034L8.92654 11.5007C6.86075 10.4569 5.19722 8.68287 4.21827 6.47964L5.66659 5.22016C5.8611 5.04963 5.99868 4.81655 6.05876 4.55574C6.11883 4.29493 6.09819 4.02039 5.99991 3.77312L4.83326 0.77418V0.770625Z" fill="#0FC9DF"/>
</svg>
